<?xml version="1.0" encoding="utf-8"?>
<?xml-stylesheet type="text/xsl" href="rss1.xsl"?>
<rss version="2.0" xmlns:atom="http://www.w3.org/2005/Atom" xmlns:content="http://purl.org/rss/1.0/modules/content/" xmlns:dc="http://purl.org/dc/elements/1.1/" xmlns:media="http://search.yahoo.com/mrss/">
<channel>
 <title>Getty</title>
 <link>http://www.gettyimg.com/</link>
 <atom:link href="http://www.gettyimg.com/" rel="self" type="application/rss+xml" />

 
                <item>
                <title><![CDATA[【PRORES HD】Easy Life, BENEE - OTT [Master ProRes 1440p]]]></title>
                <link><![CDATA[https://sharemania.us/threads/easy-life-benee-ott-master-prores-1440p.220405/]]></link>
                <description><![CDATA[<article>
<blockquote class="messageText SelectQuoteContainer ugc baseHtml">
<div style="text-align: center"><img src="https://i.ibb.co/zhTkRx9/Easy-Life-BENEE-OTT-Master-Pro-Res-1440p-mp4.png" class="bbCodeImage LbImage" alt="[​IMG]" data-url="https://i.ibb.co/zhTkRx9/Easy-Life-BENEE-OTT-Master-Pro-Res-1440p-mp4.png" style=""> <br>
<br>
<div class="ToggleTriggerAnchor bbCodeSpoilerContainer">
<button type="button" class="button bbCodeSpoilerButton ToggleTrigger Tooltip JsOnly" data-target="> .SpoilerTarget"><span>Spoiler: <span class="SpoilerTitle">Mediainfo</span></span></button>
<div class="SpoilerTarget bbCodeSpoilerText"><b>General</b><br>
Complete name : Easy Life, BENEE - OTT [Master ProRes 1440p].mp4<br>
Format : MPEG-4<br>
Format profile : QuickTime<br>
Codec ID : qt 0000.02 (qt )<br>
File size : 7.30 GiB<br>
Duration : 2 min 54 s<br>
Overall bit rate mode : Variable<br>
Overall bit rate : 359 Mb/s<br>
Encoded date : UTC 2022-06-27 08:33:01<br>
Tagged date : UTC 2022-06-27 08:33:01<br>
Writing application : Blackmagic Design DaVinci Resolve Studio<br>
Writing library : Apple QuickTime<br>
<br>
<b>Video</b><br>
ID : 1<br>
Format : ProRes<br>
Format version : Version 1<br>
Format profile : 4444<br>
Codec ID : ap4h<br>
Duration : 2 min 54 s<br>
Bit rate mode : Variable<br>
Bit rate : 357 Mb/s<br>
Width : 1 920 pixels<br>
Height : 1 440 pixels<br>
Display aspect ratio : 4:3<br>
Frame rate mode : Constant<br>
Frame rate : 25.000 FPS<br>
Color space : YUV<br>
Chroma subsampling : 4:4:4<br>
Scan type : Progressive<br>
Bits/(Pixel*Frame) : 5.170<br>
Stream size : 7.26 GiB (100%)<br>
Writing library : abm0<br>
Encoded date : UTC 2022-06-27 08:33:01<br>
Tagged date : UTC 2022-06-27 08:33:01<br>
Color primaries : BT.709<br>
Matrix coefficients : BT.709<br>
Gamma : 2.400<br>
<br>
<b>Audio</b><br>
ID : 2<br>
Format : PCM<br>
Format settings : Little / Signed<br>
Codec ID : lpcm<br>
Duration : 2 min 54 s<br>
Bit rate mode : Constant<br>
Bit rate : 1 536 kb/s<br>
Channel(s) : 2 channels<br>
Channel layout : L R<br>
Sampling rate : 48.0 kHz<br>
Bit depth : 16 bits<br>
Stream size : 32.0 MiB (0%)<br>
Default : Yes<br>
Alternate group : 1<br>
Encoded date : UTC 2022-06-27 08:33:01<br>
Tagged date : UTC 2022-06-27 08:33:01<br>
<br>
<b>Other</b><br>
ID  : 3<br>
Type : Time code<br>
Format : QuickTime TC<br>
Duration : 2 min 54 s<br>
Frame rate : 25.000 FPS<br>
Time code of first frame : 01:00:00:00<br>
Time code of last frame : 01:02:54:14<br>
Time code, stripped : Yes<br>
Language : English<br>
Default : No<br>
Encoded date : UTC 2022-06-27 08:33:01<br>
Tagged date : UTC 2022-06-27 08:33:01</div>
</div></div><br>
<div style="text-align: center">
<div class="bbCodeBlock bbCodeVfcHH HiddenContent">
<div class="attribution type">Hidden Content:</div>
<blockquote>You must reply before you can see the hidden data contained here.</blockquote>
</div></div>
<div class="messageTextEndMarker">&nbsp;</div>
</blockquote>
</article>]]></description>
                <author><![CDATA[von_3649]]></author>
                </item>

                </channel></rss>